<?xml version="1.0" encoding="utf-8"?>
<!-- Generator: Adobe Illustrator 22.0.0, SVG Export Plug-In . SVG Version: 6.00 Build 0)  -->
<svg version="1.1" id="Layer_1" xmlns="http://www.w3.org/2000/svg" xmlns:xlink="http://www.w3.org/1999/xlink" x="0px" y="0px"
	 viewBox="0 0 2000 2000" style="enable-background:new 0 0 2000 2000;" xml:space="preserve">
<style type="text/css">
	.st0{fill-rule:evenodd;clip-rule:evenodd;fill:#FFFFFF;}
	.st1{fill-rule:evenodd;clip-rule:evenodd;fill:#F26422;}
</style>
<path class="st0" d="M456.5,0h1102c242.3,0.1,440.6,198.3,440.7,440.6v1102.2c-0.1,242.3-198.3,440.5-440.6,440.6H456.4
	c-242.3-0.1-440.6-198.4-440.6-440.7v-1102C15.8,198.4,214.1,0.1,456.5,0z"/>
<path class="st0" d="M443.6,0h1111.2c244.4,0.1,444.3,199.9,444.4,444.3v1111.4c-0.1,244.3-200,444.2-444.3,444.3H443.5
	c-244.3-0.1-444.2-200.1-444.3-444.4V444.4C-0.7,200,199.2,0.1,443.6,0z"/>
<path class="st1" d="M704.1,780.9c-48.1,0-87.1-39-87.1-87.1c0-48.1,39-87.1,87.1-87.1h473.1c4.1,0,8.2,0.3,12.2,0.9
	c37.1,3.1,133.8,23.2,181.2,145.1c16.9,43.6,54,139.8,95.1,246.6c1.6,3.5,3,7,4.1,10.7c75.8,197.2,163.4,425.5,163.8,426.5
	c1.2,3.2,2.2,6.4,3.1,9.7c5.8,16.5,22.6,62.4,34.5,70.3c13.8,9.2,57.6,5.1,57.7,5.1c47.7-4.3,90,30.9,94.3,78.6
	c4.3,47.7-30.9,90-78.6,94.3c-0.3,0-105.4,10-170-33c-54-36-91.3-130-101.7-158.5c-0.7-1.5-1.3-3-1.9-4.6l-11.6-30.3
	c-194,0.5-797.8,2-821.6-0.5c-39.4-4.1-71.8-13.6-98.1-27.3c-38.6-20.1-64.8-48.7-80.7-83.5c-14.8-32.3-19.1-67.4-15.3-103.8
	c4.6-43.4,20.6-88.8,43.5-132.9c7-13.5,10.5-21,13.8-28.3c35.4-77.6,65.4-143.2,194-143.2h100.6H1260
	c-25.7-67-45.2-117.5-51.4-133.4c-10.9-28.2-22.4-33.5-26.8-34.5c-1.5,0.1-3,0.1-4.6,0.1H704.1L704.1,780.9z M1231.8,320
	c60.6,0,109.8,49.2,109.8,109.8c0,60.6-49.1,109.8-109.8,109.8c-60.6,0-109.8-49.1-109.8-109.8C1122,369.2,1171.2,320,1231.8,320
	L1231.8,320z M722.1,320c60.6,0,109.8,49.2,109.8,109.8c0,60.6-49.1,109.8-109.8,109.8c-60.6,0-109.8-49.1-109.8-109.8
	C612.3,369.2,661.5,320,722.1,320L722.1,320z M1392.8,1294.8l-66-171.9H795.6H695c-17.4,0-26,18.8-36.1,41.1
	c-6.3,13.8-12.8,28.2-17.2,36.5c-13.7,26.4-23.1,50.9-25.1,70.3c-0.7,6.9-0.7,11.8,0.3,14c0.2,0.4,0.8-0.1,3.1,1.1
	c8,4.2,19.6,7.2,35.5,8.9C671.7,1296.5,1157.2,1295.4,1392.8,1294.8z"/>
</svg>
